<?xml version="1.0" encoding="utf-8"?>
<!-- Generator: Adobe Illustrator 24.1.1, SVG Export Plug-In . SVG Version: 6.00 Build 0)  -->
<svg version="1.1" id="Livello_1" xmlns="http://www.w3.org/2000/svg" xmlns:xlink="http://www.w3.org/1999/xlink" x="0px" y="0px"
	 viewBox="0 0 1366 768" style="enable-background:new 0 0 1366 768;" xml:space="preserve">
<style type="text/css">
	.st0{fill:url(#SVGID_1_);}
	.st1{fill:url(#SVGID_2_);}
</style>
<linearGradient id="SVGID_1_" gradientUnits="userSpaceOnUse" x1="578.9594" y1="553.4688" x2="579.0707" y2="553.0535">
	<stop  offset="0.1853" style="stop-color:#18FFED"/>
	<stop  offset="0.2315" style="stop-color:#1BF8EE"/>
	<stop  offset="0.3547" style="stop-color:#21EBEF"/>
	<stop  offset="0.47" style="stop-color:#23E7F0"/>
	<stop  offset="0.842" style="stop-color:#21D1FF"/>
</linearGradient>
<path class="st0" d="M578.6,553.37c0.24,0.05,0.48,0.11,0.72,0.16c-0.09-0.16-0.18-0.32-0.26-0.48
	C578.91,553.16,578.76,553.26,578.6,553.37z"/>
<linearGradient id="SVGID_2_" gradientUnits="userSpaceOnUse" x1="575.3815" y1="649.1377" x2="789.755" y2="-150.915">
	<stop  offset="0.1853" style="stop-color:#18FFED"/>
	<stop  offset="0.2315" style="stop-color:#1BF8EE"/>
	<stop  offset="0.3547" style="stop-color:#21EBEF"/>
	<stop  offset="0.47" style="stop-color:#23E7F0"/>
	<stop  offset="0.842" style="stop-color:#21D1FF"/>
</linearGradient>
<path class="st1" d="M1297.64,163.26c3.66-0.23,7.16,0.47,10.27,1.9c3.49-5.98,9.8-10.18,17.23-10.64c1.28-0.08,2.53-0.03,3.76,0.11
	c2.42-8.52,9.97-15,19.31-15.59c7.06-0.44,13.55,2.58,17.79,7.6V-1H683H0v491c0,0,102.18,35.91,250.25,70.28
	c-1.01-1.83-1.76-3.84-2.21-5.99c-2.41-11.63,5.06-23.01,16.69-25.42c3.59-0.74,7.15-0.54,10.44,0.43
	c2.61-6.42,8.26-11.46,15.56-12.97c1.25-0.26,2.5-0.38,3.74-0.42c1.19-8.78,7.75-16.26,16.92-18.16
	c11.63-2.41,23.01,5.06,25.42,16.69c0.16,0.77,0.27,1.54,0.34,2.31c2.71-2.39,6.04-4.14,9.83-4.93
	c11.63-2.41,23.01,5.06,25.42,16.69c2.41,11.63-5.06,23.01-16.69,25.42c-1.9,0.39-3.78,0.5-5.63,0.39
	c-1.03,8.97-7.66,16.66-16.98,18.6c-5.24,1.09-10.42,0.15-14.77-2.25c-1.08,1.41-2.35,2.68-3.76,3.79
	C435.39,599.55,577.97,620.8,718,622c351,3,648-126,648-126V214.89c-2.14,0.89-4.46,1.45-6.9,1.61c-5.34,0.34-10.34-1.32-14.3-4.31
	c-3.55,3.47-8.3,5.74-13.65,6.07c-9.98,0.63-18.78-5.67-21.76-14.76c-2.71,1.5-5.77,2.46-9.06,2.67
	c-11.85,0.75-22.06-8.26-22.81-20.11S1285.78,164,1297.64,163.26z M242.08,422.32c-2.68,0.65-5.37,0.73-7.94,0.35
	c-1.45,7.93-7.4,14.65-15.74,16.66c-9.33,2.24-18.68-2.13-23.18-10.08c-2.71,5.2-7.55,9.25-13.7,10.72
	c-11.28,2.71-22.62-4.23-25.33-15.51c-0.24-1-0.38-1.99-0.47-2.98c-0.08,0.02-0.15,0.05-0.23,0.07
	c-11.28,2.71-22.62-4.23-25.33-15.51c-2.71-11.28,4.23-22.62,15.51-25.33c3.14-0.76,6.29-0.74,9.25-0.11
	c1.6-7.71,7.47-14.2,15.63-16.16c9.58-2.3,19.19,2.38,23.53,10.75c2.82-4.46,7.3-7.88,12.84-9.21c11.28-2.71,22.62,4.23,25.33,15.51
	c11.28-2.71,22.62,4.23,25.33,15.51C260.3,408.27,253.36,419.61,242.08,422.32z M379.5,249c-0.7,0-1.39-0.05-2.07-0.12
	c-3.22,5.45-9.14,9.12-15.93,9.12c-0.52,0-1.03-0.04-1.54-0.08c-3.07,5.98-9.28,10.08-16.46,10.08c-10.06,0-18.22-8.03-18.48-18.02
	c-6.68-0.25-12.02-5.73-12.02-12.48c0-6.74,5.34-12.23,12.03-12.48c-0.01-0.18-0.03-0.35-0.03-0.52c0-6.9,5.6-12.5,12.5-12.5
	c3.54,0,6.73,1.48,9,3.84c2.27-2.36,5.46-3.84,9-3.84c4.44,0,8.34,2.33,10.55,5.82c3.37-3.58,8.14-5.82,13.45-5.82
	c10.22,0,18.5,8.28,18.5,18.5C398,240.72,389.72,249,379.5,249z M738,380c-2.46,0-4.81-0.44-7-1.22c-3.67,6.12-10.35,10.22-18,10.22
	c-4.95,0-9.49-1.72-13.09-4.59c-3.82,5.2-9.97,8.59-16.91,8.59c-11.6,0-21-9.4-21-21c0-0.95,0.08-1.87,0.21-2.79
	c-3.07,1.75-6.61,2.77-10.4,2.77c-11.6,0-21-9.4-21-21c0-11.6,9.4-21,21-21c4.58,0,8.81,1.48,12.26,3.97
	C667.45,326.89,674.65,322,683,322c7,0,13.18,3.44,17,8.71c3.82-5.27,10-8.71,17-8.71c9.88,0,18.15,6.84,20.38,16.03
	c0.21-0.01,0.41-0.03,0.62-0.03c11.6,0,21,9.4,21,21C759,370.6,749.6,380,738,380z"/>
</svg>
