<?xml version="1.0" encoding="utf-8"?>
<!-- Generator: Adobe Illustrator 24.1.1, SVG Export Plug-In . SVG Version: 6.00 Build 0)  -->
<svg version="1.1" id="Livello_1" xmlns="http://www.w3.org/2000/svg" xmlns:xlink="http://www.w3.org/1999/xlink" x="0px" y="0px"
	 viewBox="0 0 1366 768" style="enable-background:new 0 0 1366 768;" xml:space="preserve">
<style type="text/css">
	.st0{fill:#28F4EF;}
	.st1{fill:#FFFFFF;stroke:#000000;stroke-miterlimit:10;}
	.st2{fill:#E4D2EF;}
	.st3{opacity:0.9;fill:url(#SVGID_1_);}
</style>
<path class="st0" d="M0,750.48v-131c0,0,28,24,417,39s696.06-127.43,826-133c140-6,123-1,123-1v226"/>
<path class="st1" d="M1398.5,553.98"/>
<path class="st2" d="M36,398.03V398C36,398,36,398.01,36,398.03z"/>
<g>
	<linearGradient id="SVGID_1_" gradientUnits="userSpaceOnUse" x1="184.9858" y1="1032.1871" x2="1205.8915" y2="317.3413">
		<stop  offset="0.0863" style="stop-color:#45EAEF"/>
		<stop  offset="0.6786" style="stop-color:#1AAEEF"/>
		<stop  offset="0.7237" style="stop-color:#17A9EF"/>
	</linearGradient>
	<path class="st3" d="M1366,546c0,0-59.69,19.02-273,62c-84.78,17.08-169.06,17.45-252.84,9.78C659.1,601.21,480.38,547.1,304,543
		C46,537,0,601,0,601v24.62V768h1365h1v-76.79V546z"/>
</g>
</svg>
