<svg width="1990" height="1058" viewBox="0 0 1990 1058" fill="none" xmlns="http://www.w3.org/2000/svg">
<g filter="url(#filter0_d_113_764)">
<ellipse cx="994.5" cy="-120.466" rx="1333.5" ry="1170.16" fill="url(#paint0_radial_113_764)"/>
</g>
<ellipse rx="49.9646" ry="55.6235" transform="matrix(-0.999875 -0.0158017 0.0138692 -0.999904 220.717 403.896)" fill="#F8F8F8"/>
<ellipse rx="56.7499" ry="61.8039" transform="matrix(-0.999875 -0.0158017 0.0138692 -0.999904 151.489 369.149)" fill="#F8F8F8"/>
<ellipse rx="43.7961" ry="41.8893" transform="matrix(-0.999875 -0.0158017 0.0138692 -0.999904 151.258 430.27)" fill="#F8F8F8"/>
<ellipse rx="43.7961" ry="41.8893" transform="matrix(-0.999875 -0.0158017 0.0138692 -0.999904 95.3724 367.575)" fill="#F8F8F8"/>
<ellipse rx="43.7961" ry="41.8893" transform="matrix(-0.999875 -0.0158017 0.0138692 -0.999904 81.137 415.426)" fill="#F8F8F8"/>
<ellipse rx="51.1982" ry="54.9368" transform="matrix(-0.999875 -0.0158017 0.0138692 -0.999904 38.7156 360.499)" fill="#F8F8F8"/>
<ellipse rx="55.2337" ry="55.4389" transform="matrix(-0.99661 0.0822737 -0.0722662 -0.997385 455.438 875.986)" fill="#F8F8F8"/>
<ellipse rx="62.7345" ry="61.5988" transform="matrix(-0.99661 0.0822737 -0.0722662 -0.997385 376.221 848.876)" fill="#F8F8F8"/>
<ellipse rx="48.4147" ry="41.7503" transform="matrix(-0.99661 0.0822737 -0.0722662 -0.997385 381.303 909.575)" fill="#F8F8F8"/>
<ellipse rx="48.4147" ry="41.7503" transform="matrix(-0.99661 0.0822737 -0.0722662 -0.997385 314.329 853.299)" fill="#F8F8F8"/>
<ellipse rx="48.4147" ry="41.7503" transform="matrix(-0.99661 0.0822737 -0.0722662 -0.997385 302.841 902.318)" fill="#F8F8F8"/>
<ellipse rx="56.5974" ry="54.7545" transform="matrix(-0.99661 0.0822737 -0.0722662 -0.997385 251.362 852.316)" fill="#F8F8F8"/>
<g opacity="0.8">
<ellipse rx="28.0177" ry="31.6948" transform="matrix(-0.99661 0.0822737 -0.0722662 -0.997385 825.582 859.792)" fill="#F8F8F8"/>
<ellipse rx="31.8226" ry="35.2164" transform="matrix(-0.99661 0.0822737 -0.0722662 -0.997385 785.242 843.885)" fill="#F8F8F8"/>
<ellipse rx="24.5588" ry="23.8689" transform="matrix(-0.99661 0.0822737 -0.0722662 -0.997385 788.103 878.591)" fill="#F8F8F8"/>
<ellipse rx="24.5588" ry="23.8689" transform="matrix(-0.99661 0.0822737 -0.0722662 -0.997385 753.844 846.084)" fill="#F8F8F8"/>
<ellipse rx="24.5588" ry="23.8689" transform="matrix(-0.99661 0.0822737 -0.0722662 -0.997385 748.239 874.029)" fill="#F8F8F8"/>
<ellipse rx="28.7095" ry="31.3035" transform="matrix(-0.99661 0.0822737 -0.0722662 -0.997385 721.874 845.19)" fill="#F8F8F8"/>
</g>
<g opacity="0.8">
<ellipse rx="28.0177" ry="30.6151" transform="matrix(-0.99661 0.0822737 -0.0722662 -0.997385 1692.45 581.485)" fill="#F8F8F8"/>
<ellipse rx="31.8226" ry="34.0168" transform="matrix(-0.99661 0.0822737 -0.0722662 -0.997385 1652.15 566.229)" fill="#F8F8F8"/>
<ellipse rx="24.5588" ry="23.0558" transform="matrix(-0.99661 0.0822737 -0.0722662 -0.997385 1654.93 599.751)" fill="#F8F8F8"/>
<ellipse rx="24.5588" ry="23.0558" transform="matrix(-0.99661 0.0822737 -0.0722662 -0.997385 1620.76 568.442)" fill="#F8F8F8"/>
<ellipse rx="24.5588" ry="23.0558" transform="matrix(-0.99661 0.0822737 -0.0722662 -0.997385 1615.09 595.456)" fill="#F8F8F8"/>
<ellipse rx="28.7095" ry="30.2372" transform="matrix(-0.99661 0.0822737 -0.0722662 -0.997385 1588.8 567.667)" fill="#F8F8F8"/>
</g>
<g opacity="0.8">
<ellipse rx="28.0177" ry="30.6151" transform="matrix(-0.99661 0.0822737 -0.0722662 -0.997385 580.447 518.508)" fill="#F8F8F8"/>
<ellipse rx="31.8226" ry="34.0168" transform="matrix(-0.99661 0.0822737 -0.0722662 -0.997385 540.155 503.252)" fill="#F8F8F8"/>
<ellipse rx="24.5588" ry="23.0558" transform="matrix(-0.99661 0.0822737 -0.0722662 -0.997385 542.931 536.774)" fill="#F8F8F8"/>
<ellipse rx="24.5588" ry="23.0558" transform="matrix(-0.99661 0.0822737 -0.0722662 -0.997385 508.758 505.464)" fill="#F8F8F8"/>
<ellipse rx="24.5588" ry="23.0558" transform="matrix(-0.99661 0.0822737 -0.0722662 -0.997385 503.085 532.479)" fill="#F8F8F8"/>
<ellipse rx="28.7095" ry="30.2372" transform="matrix(-0.99661 0.0822737 -0.0722662 -0.997385 476.797 504.69)" fill="#F8F8F8"/>
</g>
<g opacity="0.8">
<ellipse rx="28.0177" ry="30.6151" transform="matrix(-0.99661 0.0822737 -0.0722662 -0.997385 310.447 788.563)" fill="#F8F8F8"/>
<ellipse rx="31.8226" ry="34.0168" transform="matrix(-0.99661 0.0822737 -0.0722662 -0.997385 270.155 773.307)" fill="#F8F8F8"/>
<ellipse rx="24.5588" ry="23.0558" transform="matrix(-0.99661 0.0822737 -0.0722662 -0.997385 272.931 806.829)" fill="#F8F8F8"/>
<ellipse rx="24.5588" ry="23.0558" transform="matrix(-0.99661 0.0822737 -0.0722662 -0.997385 238.758 775.519)" fill="#F8F8F8"/>
<ellipse rx="24.5588" ry="23.0558" transform="matrix(-0.99661 0.0822737 -0.0722662 -0.997385 233.085 802.534)" fill="#F8F8F8"/>
<ellipse rx="28.7095" ry="30.2372" transform="matrix(-0.99661 0.0822737 -0.0722662 -0.997385 206.797 774.745)" fill="#F8F8F8"/>
</g>
<g opacity="0.8">
<ellipse rx="28.1181" ry="30.5184" transform="matrix(0.966977 -0.254863 0.225376 0.974272 1356.94 935.949)" fill="#F8F8F8"/>
<ellipse rx="31.9366" ry="33.9094" transform="matrix(0.966977 -0.254863 0.225376 0.974272 1399.03 943.938)" fill="#F8F8F8"/>
<ellipse rx="24.6467" ry="22.983" transform="matrix(0.966977 -0.254863 0.225376 0.974272 1391.13 911.357)" fill="#F8F8F8"/>
<ellipse rx="24.6467" ry="22.983" transform="matrix(0.966977 -0.254863 0.225376 0.974272 1429.66 936.255)" fill="#F8F8F8"/>
<ellipse rx="24.6467" ry="22.983" transform="matrix(0.966977 -0.254863 0.225376 0.974272 1431.1 908.613)" fill="#F8F8F8"/>
<ellipse rx="28.8123" ry="30.1417" transform="matrix(0.966977 -0.254863 0.225376 0.974272 1461.31 931.419)" fill="#F8F8F8"/>
</g>
<ellipse rx="40.5953" ry="43.1407" transform="matrix(0.98065 -0.195769 0.172584 0.984995 1707.79 832.951)" fill="#F8F8F8"/>
<ellipse rx="46.1082" ry="47.9341" transform="matrix(0.98065 -0.195769 0.172584 0.984995 1767.83 847.57)" fill="#F8F8F8"/>
<ellipse rx="35.5835" ry="32.4887" transform="matrix(0.98065 -0.195769 0.172584 0.984995 1759.16 800.978)" fill="#F8F8F8"/>
<ellipse rx="35.5835" ry="32.4887" transform="matrix(0.98065 -0.195769 0.172584 0.984995 1812.65 839.167)" fill="#F8F8F8"/>
<ellipse rx="35.5835" ry="32.4887" transform="matrix(0.98065 -0.195769 0.172584 0.984995 1817.02 800.285)" fill="#F8F8F8"/>
<ellipse rx="41.5976" ry="42.6081" transform="matrix(0.98065 -0.195769 0.172584 0.984995 1858.69 834.861)" fill="#F8F8F8"/>
<ellipse rx="40.5953" ry="43.1407" transform="matrix(0.98065 -0.195769 0.172584 0.984995 1820.09 369.312)" fill="#F8F8F8"/>
<ellipse rx="46.1082" ry="47.9341" transform="matrix(0.98065 -0.195769 0.172584 0.984995 1880.13 383.931)" fill="#F8F8F8"/>
<ellipse rx="35.5835" ry="32.4887" transform="matrix(0.98065 -0.195769 0.172584 0.984995 1871.46 337.338)" fill="#F8F8F8"/>
<ellipse rx="35.5835" ry="32.4887" transform="matrix(0.98065 -0.195769 0.172584 0.984995 1924.95 375.527)" fill="#F8F8F8"/>
<ellipse rx="35.5835" ry="32.4887" transform="matrix(0.98065 -0.195769 0.172584 0.984995 1929.33 336.646)" fill="#F8F8F8"/>
<ellipse rx="41.5976" ry="42.6081" transform="matrix(0.98065 -0.195769 0.172584 0.984995 1970.99 371.222)" fill="#F8F8F8"/>
<defs>
<filter id="filter0_d_113_764" x="-343" y="-1290.63" width="2675" height="2348.32" filterUnits="userSpaceOnUse" color-interpolation-filters="sRGB">
<feFlood flood-opacity="0" result="BackgroundImageFix"/>
<feColorMatrix in="SourceAlpha" type="matrix" values="0 0 0 0 0 0 0 0 0 0 0 0 0 0 0 0 0 0 127 0" result="hardAlpha"/>
<feOffset dy="4"/>
<feGaussianBlur stdDeviation="2"/>
<feComposite in2="hardAlpha" operator="out"/>
<feColorMatrix type="matrix" values="0 0 0 0 0 0 0 0 0 0 0 0 0 0 0 0 0 0 0.25 0"/>
<feBlend mode="normal" in2="BackgroundImageFix" result="effect1_dropShadow_113_764"/>
<feBlend mode="normal" in="SourceGraphic" in2="effect1_dropShadow_113_764" result="shape"/>
</filter>
<radialGradient id="paint0_radial_113_764" cx="0" cy="0" r="1" gradientUnits="userSpaceOnUse" gradientTransform="translate(978 -471.155) rotate(89.3784) scale(1520.94 1733.33)">
<stop offset="0.526042" stop-color="#22AFFF"/>
<stop offset="1" stop-color="#19E5F2"/>
</radialGradient>
</defs>
</svg>
